<svg height="650" width="1235" xmlns="http://www.w3.org/2000/svg" xmlns:xlink="http://www.w3.org/1999/xlink"><defs><path id="a" d="m-.16245985 0 .16245985-.5.16245985.5z" fill="#fff" transform="scale(.0616)"/><g id="b"><use transform="matrix(-.80901699 -.58778525 .58778525 -.80901699 0 0)" xlink:href="#a"/><use transform="matrix(.30901699 -.95105652 .95105652 .30901699 0 0)" xlink:href="#a"/><use xlink:href="#a"/><use transform="matrix(.30901699 .95105652 -.95105652 .30901699 0 0)" xlink:href="#a"/><use transform="matrix(-.80901699 .58778525 -.58778525 -.80901699 0 0)" xlink:href="#a"/></g><g id="c"><use x="-.252" xlink:href="#b"/><use x="-.126" xlink:href="#b"/><use xlink:href="#b"/><use x=".126" xlink:href="#b"/><use x=".252" xlink:href="#b"/></g><g id="d"><use x="-.063" xlink:href="#c"/><use x=".315" xlink:href="#b"/></g><g id="e"><use xlink:href="#d"/><use xlink:href="#c" y=".054"/><use xlink:href="#d" y=".108"/><use xlink:href="#c" y=".162"/></g><path id="f" d="m0 0h1235v50h-1235z" fill="#b22234"/></defs><path d="m0 0h1235v650h-1235z" fill="#fff"/><use xlink:href="#f"/><use xlink:href="#f" y="100"/><use xlink:href="#f" y="200"/><use xlink:href="#f" y="300"/><use xlink:href="#f" y="400"/><use xlink:href="#f" y="500"/><use xlink:href="#f" y="600"/><path d="m0 0h494v350h-494z" fill="#3c3b6e"/><g transform="matrix(650 0 0 650 247 175)"><use xlink:href="#e" y="-.216"/><use xlink:href="#e"/><use xlink:href="#d" y=".216"/></g></svg>